<svg xmlns="http://www.w3.org/2000/svg" viewBox="0 0 32 32" fill="none">
  <circle cx="16" cy="16" r="16" fill="#4A6CF7"/>
  <path d="M16 8C11.58 8 8 11.58 8 16C8 20.42 11.58 24 16 24C20.42 24 24 20.42 24 16C24 11.58 20.42 8 16 8Z" fill="white" fill-opacity="0.2"/>
  <path d="M13 14C13 12.9 13.9 12 15 12H17C18.1 12 19 12.9 19 14V18C19 19.1 18.1 20 17 20H15C13.9 20 13 19.1 13 18V14Z" fill="white"/>
  <path d="M22 15C22 13.34 20.66 12 19 12C17.34 12 16 13.34 16 15V18C16 19.66 17.34 21 19 21C20.66 21 22 19.66 22 18V15Z" fill="white" fill-opacity="0.6"/>
  <rect x="14" y="22" width="4" height="2" rx="1" fill="white"/>
</svg>